<svg width="101" height="101" viewBox="0 0 101 101" fill="none" xmlns="http://www.w3.org/2000/svg">
<rect width="101" height="101" fill="black"/>
<path d="M57.9782 68.024H28V60.9234L42.9891 41.5109H28.8509V32H57.2582V39.6869L42.9236 58.5131H57.9782V68.024Z" fill="white"/>
<path d="M58.4256 62.7474C58.4256 60.4891 59.0801 58.904 60.3892 57.992C61.742 57.08 63.3565 56.624 65.2329 56.624C67.022 56.624 68.5492 57.08 69.8147 57.992C71.1238 58.904 71.7783 60.4891 71.7783 62.7474C71.7783 64.8754 71.1238 66.4171 69.8147 67.3726C68.5492 68.328 67.022 68.8057 65.2329 68.8057C63.3565 68.8057 61.742 68.328 60.3892 67.3726C59.0801 66.4171 58.4256 64.8754 58.4256 62.7474Z" fill="#2D88E3"/>
</svg>
