<svg width="264" height="72" viewBox="0 0 264 72" fill="none" xmlns="http://www.w3.org/2000/svg">
<path d="M43.968 63.744H0V53.28L21.984 24.672H1.248V10.656H42.912V21.984L21.888 49.728H43.968V63.744ZM70.8323 9.69603C76.0163 9.69603 80.464 10.592 84.176 12.384C87.952 14.176 90.832 16.864 92.816 20.448C94.864 24.032 95.888 28.544 95.888 33.984V42.144H63.1523C63.2803 44.896 64.3043 47.168 66.2243 48.96C68.2083 50.752 71.0563 51.648 74.7683 51.648C78.0963 51.648 81.136 51.328 83.888 50.688C86.64 50.048 89.488 49.024 92.432 47.616V60.768C89.872 62.112 87.056 63.104 83.984 63.744C80.976 64.384 77.1683 64.704 72.5603 64.704C67.1843 64.704 62.3843 63.776 58.1603 61.92C54.0003 60 50.7043 57.024 48.2723 52.992C45.8403 48.96 44.6243 43.808 44.6243 37.536C44.6243 31.136 45.7123 25.888 47.8883 21.792C50.1283 17.696 53.2003 14.656 57.1043 12.672C61.0723 10.688 65.6483 9.69603 70.8323 9.69603ZM71.5043 22.176C69.3283 22.176 67.5043 22.848 66.0323 24.192C64.6243 25.536 63.7923 27.68 63.5363 30.624H79.2803C79.2803 29.024 78.9603 27.616 78.3203 26.4C77.7443 25.12 76.8803 24.096 75.7283 23.328C74.5763 22.56 73.1683 22.176 71.5043 22.176ZM126.528 50.208C128.192 50.208 129.696 50.048 131.04 49.728C132.448 49.344 133.888 48.896 135.36 48.384V61.728C133.376 62.56 131.264 63.264 129.024 63.84C126.784 64.416 123.936 64.704 120.48 64.704C117.024 64.704 113.984 64.16 111.36 63.072C108.8 61.984 106.784 60.128 105.312 57.504C103.84 54.816 103.104 51.072 103.104 46.272V24.384H96.672V16.896L104.832 11.136L109.536 0H121.536V10.656H134.592V24.384H121.536V45.024C121.536 46.752 121.952 48.064 122.784 48.96C123.68 49.792 124.928 50.208 126.528 50.208ZM178.364 47.424C178.364 50.752 177.596 53.728 176.06 56.352C174.588 58.976 172.188 61.024 168.86 62.496C165.596 63.968 161.276 64.704 155.9 64.704C152.124 64.704 148.732 64.48 145.724 64.032C142.78 63.648 139.772 62.88 136.7 61.728V47.04C140.092 48.576 143.516 49.696 146.972 50.4C150.428 51.04 153.148 51.36 155.132 51.36C157.18 51.36 158.684 51.136 159.644 50.688C160.604 50.24 161.084 49.568 161.084 48.672C161.084 47.904 160.764 47.232 160.124 46.656C159.484 46.08 158.332 45.44 156.668 44.736C155.068 44.032 152.764 43.072 149.756 41.856C146.812 40.64 144.348 39.328 142.364 37.92C140.444 36.448 139.004 34.72 138.044 32.736C137.084 30.688 136.604 28.224 136.604 25.344C136.604 20.16 138.588 16.256 142.556 13.632C146.588 11.008 151.9 9.69603 158.492 9.69603C162.012 9.69603 165.308 10.08 168.38 10.848C171.452 11.616 174.652 12.736 177.98 14.208L172.988 26.016C170.364 24.8 167.708 23.84 165.02 23.136C162.332 22.432 160.188 22.08 158.588 22.08C157.18 22.08 156.06 22.272 155.228 22.656C154.46 23.04 154.076 23.584 154.076 24.288C154.076 24.928 154.332 25.504 154.844 26.016C155.42 26.528 156.476 27.104 158.012 27.744C159.548 28.384 161.788 29.312 164.732 30.528C167.804 31.744 170.332 33.088 172.316 34.56C174.364 35.968 175.868 37.696 176.828 39.744C177.852 41.728 178.364 44.288 178.364 47.424ZM234.39 10.656V63.744H220.566L218.262 57.12H217.206C216.118 58.912 214.71 60.384 212.982 61.536C211.318 62.624 209.462 63.424 207.414 63.936C205.43 64.448 203.35 64.704 201.174 64.704C197.718 64.704 194.582 64.032 191.766 62.688C188.95 61.344 186.71 59.232 185.046 56.352C183.446 53.472 182.646 49.76 182.646 45.216V10.656H200.982V39.648C200.982 43.104 201.462 45.728 202.422 47.52C203.446 49.312 205.078 50.208 207.318 50.208C209.622 50.208 211.414 49.6 212.694 48.384C213.974 47.104 214.838 45.248 215.286 42.816C215.798 40.384 216.054 37.408 216.054 33.888V10.656H234.39Z" fill="black"/>
<path d="M238.99 55.9679C238.99 52.6399 239.95 50.3039 241.87 48.9599C243.854 47.6159 246.222 46.9439 248.974 46.9439C251.598 46.9439 253.838 47.6159 255.694 48.9599C257.614 50.3039 258.574 52.6399 258.574 55.9679C258.574 59.1039 257.614 61.3759 255.694 62.7839C253.838 64.1919 251.598 64.8959 248.974 64.8959C246.222 64.8959 243.854 64.1919 241.87 62.7839C239.95 61.3759 238.99 59.1039 238.99 55.9679Z" fill="#2D88E3"/>
</svg>
